<svg width="353" height="330" viewBox="0 0 353 330" fill="none" xmlns="http://www.w3.org/2000/svg">
<g clip-path="url(#clip0_0_8)">
<g opacity="0.8">
<path d="M182.126 102.904C215.967 102.904 243.4 81.7384 243.4 55.6292C243.4 29.5199 215.967 8.35417 182.126 8.35417C148.285 8.35417 120.852 29.5199 120.852 55.6292C120.852 81.7384 148.285 102.904 182.126 102.904Z" fill="url(#paint0_linear_0_8)"/>
</g>
<path d="M181.626 102C214.763 102 241.626 81.1812 241.626 55.5C241.626 29.8188 214.763 9 181.626 9C148.489 9 121.626 29.8188 121.626 55.5C121.626 81.1812 148.489 102 181.626 102Z" fill="#0F70EB"/>
<path opacity="0.1" d="M131.132 60.885C131.132 35.1525 157.872 14.2918 190.861 14.2918C201.103 14.2351 211.243 16.3426 220.626 20.4782C210.127 13.3384 196.392 9 181.36 9C148.371 9 121.626 29.8607 121.626 55.5932C121.626 72.8714 133.684 87.9531 151.599 96C139.057 87.4575 131.132 74.8957 131.132 60.885Z" fill="white"/>
<path opacity="0.2" d="M181.626 74L248.126 189.002L314.626 304H181.626H48.6259L115.126 189.002L181.626 74Z" fill="#335EEA"/>
<g opacity="0.3">
<path d="M197.756 236.953L202.943 221.622C206.605 210.66 202.643 198.603 193.183 191.919L193.225 191.894C191.185 190.463 188.947 189.334 186.582 188.542L186.511 188.517L186.431 188.492C184.135 187.718 181.742 187.27 179.321 187.159C178.465 187.115 177.607 187.115 176.751 187.159C175.265 187.237 173.789 187.44 172.338 187.767C171.917 187.859 171.497 187.964 171.114 188.077C170.731 188.19 170.302 188.311 169.902 188.441C169.103 188.705 168.316 189.003 167.546 189.342C167.159 189.51 166.776 189.686 166.402 189.874C165.27 190.431 164.18 191.07 163.142 191.785C162.792 192.024 162.452 192.271 162.115 192.522C157.957 195.672 154.844 199.993 153.18 204.925L145.027 229.08C143.744 232.868 143.358 236.9 143.899 240.862C143.983 241.469 144.089 242.073 144.211 242.672C144.333 243.271 144.484 243.862 144.631 244.448C144.745 244.838 144.863 245.228 144.993 245.613C145.187 246.187 145.414 246.761 145.628 247.323C145.784 247.696 145.948 248.068 146.121 248.437C146.461 249.17 146.84 249.887 147.248 250.587C147.656 251.286 148.089 251.969 148.577 252.631C148.931 253.126 149.305 253.612 149.692 254.081C150.214 254.71 150.761 255.338 151.341 255.895C153.854 258.418 156.861 260.399 160.176 261.715L160.319 261.774C160.497 261.459 160.694 261.156 160.908 260.865C162.17 259.142 164.366 257.932 166.457 258.384C166.608 258.418 166.76 258.464 166.911 258.51C167.971 258.883 169.014 259.549 170.037 259.876C170.789 260.213 171.653 260.202 172.397 259.846C174.441 258.761 173.684 255.338 175.438 253.838C175.52 253.769 175.606 253.704 175.695 253.645C175.67 253.615 175.648 253.583 175.628 253.549C176.982 252.711 178.859 253.268 180.419 253.809C182.102 254.399 184.298 254.797 185.468 253.427C186.259 252.489 186.2 251.06 186.953 250.075C187.828 248.944 189.477 248.818 190.903 249.02L190.974 249.041C193.709 250.163 196.696 248.299 196.486 245.362C196.237 241.444 197.474 237.753 197.756 236.953Z" fill="url(#paint1_linear_0_8)"/>
</g>
<path d="M161.024 259.119C162.241 257.441 164.33 256.267 166.332 256.724C168.334 257.181 170.231 259.098 172.012 258.138C174.447 256.829 172.721 252.018 176.674 251.661C177.498 251.607 178.323 251.751 179.08 252.081C180.748 252.765 183.359 253.536 184.643 251.997C185.398 251.091 185.344 249.711 186.065 248.771C186.899 247.681 188.488 247.543 189.843 247.752L189.91 247.773C192.525 248.86 195.385 247.056 195.181 244.221C194.918 240.446 196.111 236.889 196.369 236.117L201.324 221.306C205.71 208.089 198.657 193.79 185.54 189.307C172.4 184.9 158.189 191.996 153.734 205.187L145.924 228.479C141.709 241.195 148.074 255.012 160.444 260C160.62 259.695 160.813 259.401 161.024 259.119Z" fill="white"/>
<path opacity="0.2" d="M170.126 206C171.507 206 172.626 204.881 172.626 203.5C172.626 202.119 171.507 201 170.126 201C168.745 201 167.626 202.119 167.626 203.5C167.626 204.881 168.745 206 170.126 206Z" fill="black"/>
<path opacity="0.2" d="M186.126 211C187.507 211 188.626 209.881 188.626 208.5C188.626 207.119 187.507 206 186.126 206C184.745 206 183.626 207.119 183.626 208.5C183.626 209.881 184.745 211 186.126 211Z" fill="black"/>
<path d="M177.358 217.075C178.077 214.939 177.505 212.818 176.08 212.339C174.655 211.859 172.917 213.202 172.198 215.339C171.479 217.475 172.052 219.595 173.476 220.075C174.901 220.555 176.639 219.211 177.358 217.075Z" fill="#E0E0E0"/>
<path d="M231.626 208C233.835 208 235.626 206.209 235.626 204C235.626 201.791 233.835 200 231.626 200C229.417 200 227.626 201.791 227.626 204C227.626 206.209 229.417 208 231.626 208Z" fill="white"/>
<path d="M244.626 199C245.73 199 246.626 198.105 246.626 197C246.626 195.895 245.73 195 244.626 195C243.521 195 242.626 195.895 242.626 197C242.626 198.105 243.521 199 244.626 199Z" fill="white"/>
<g opacity="0.5">
<g opacity="0.3">
<path d="M202.756 72.9525L207.943 57.6215C211.605 46.6603 207.643 34.603 198.183 27.919L198.225 27.8938C196.185 26.4632 193.947 25.3342 191.582 24.5419L191.511 24.5168L191.431 24.4916C189.135 23.7183 186.742 23.2698 184.321 23.1592C183.465 23.1152 182.607 23.1152 181.751 23.1592C180.265 23.2367 178.789 23.4399 177.338 23.7668C176.917 23.8589 176.497 23.9637 176.114 24.0768C175.731 24.1899 175.302 24.3114 174.902 24.4413C174.103 24.7053 173.316 25.0028 172.546 25.3422C172.159 25.5098 171.776 25.6857 171.402 25.8743C170.27 26.431 169.18 27.0696 168.142 27.7849C167.792 28.0237 167.452 28.2709 167.115 28.5223C162.957 31.6719 159.844 35.9925 158.18 40.9246L150.027 65.0796C148.744 68.8678 148.358 72.9003 148.899 76.8617C148.983 77.4693 149.089 78.0726 149.211 78.6718C149.333 79.2709 149.484 79.8617 149.631 80.4483C149.745 80.838 149.863 81.2276 149.993 81.6131C150.187 82.1871 150.414 82.7612 150.628 83.3226C150.784 83.6955 150.948 84.0684 151.121 84.4371C151.461 85.1704 151.84 85.8869 152.248 86.5866C152.656 87.2863 153.089 87.9693 153.577 88.6313C153.931 89.1257 154.305 89.6117 154.692 90.081C155.214 90.7095 155.761 91.317 156.341 91.8952C158.854 94.4183 161.861 96.3994 165.176 97.7151L165.319 97.7737C165.497 97.4593 165.694 97.1557 165.908 96.8645C167.17 95.1424 169.366 93.9316 171.457 94.3841C171.608 94.4176 171.76 94.4637 171.911 94.5098C172.971 94.8827 174.014 95.5489 175.037 95.8757C175.789 96.2125 176.653 96.2018 177.397 95.8464C179.441 94.7612 178.684 91.338 180.438 89.838C180.52 89.7688 180.606 89.7044 180.695 89.6452C180.67 89.6148 180.648 89.5826 180.628 89.5489C181.982 88.7109 183.859 89.2682 185.419 89.8087C187.102 90.3994 189.298 90.7975 190.468 89.4274C191.259 88.4888 191.2 87.0601 191.953 86.0754C192.828 84.9441 194.477 84.8184 195.903 85.0195H195.974C198.709 86.1425 201.696 84.2779 201.486 81.3408C201.237 77.4441 202.474 73.7528 202.756 72.9525Z" fill="url(#paint2_linear_0_8)"/>
</g>
<path d="M166.383 95.574C167.612 93.898 169.719 92.7249 171.739 93.1816C173.758 93.6383 175.672 95.5531 177.468 94.5936C179.925 93.2863 178.184 88.4804 182.172 88.1243C183.003 88.0696 183.835 88.2132 184.599 88.5433C186.282 89.2262 188.915 89.9972 190.211 88.4595C190.972 87.5545 190.918 86.176 191.646 85.2374C192.487 84.148 194.09 84.0098 195.457 84.2193L195.524 84.2402C198.162 85.3254 201.048 83.5237 200.842 80.6913C200.577 76.9204 201.78 73.3673 202.041 72.5964L207.039 57.8017C211.464 44.5982 204.349 30.3143 191.116 25.8366C177.86 21.4347 163.524 28.5225 159.03 41.6997L151.15 64.9665C146.899 77.6692 153.32 91.4715 165.798 96.4539C165.976 96.1495 166.171 95.8557 166.383 95.574Z" fill="white"/>
<path opacity="0.2" d="M175.697 42.102C177.21 42.102 178.436 40.8807 178.436 39.3743C178.436 37.8679 177.21 36.6467 175.697 36.6467C174.185 36.6467 172.959 37.8679 172.959 39.3743C172.959 40.8807 174.185 42.102 175.697 42.102Z" fill="black"/>
<path opacity="0.2" d="M191.271 47.3184C192.784 47.3184 194.01 46.0972 194.01 44.5908C194.01 43.0843 192.784 41.8631 191.271 41.8631C189.759 41.8631 188.532 43.0843 188.532 44.5908C188.532 46.0972 189.759 47.3184 191.271 47.3184Z" fill="black"/>
</g>
<path opacity="0.1" d="M239.066 41C239.846 44.0148 240.24 47.1167 240.237 50.2308C240.237 75.9385 213.338 96.779 180.154 96.779C152.995 96.7622 130.048 82.807 122.626 63.6573C128.139 84.9594 152.416 101 181.538 101C214.723 101 241.626 80.1594 241.626 54.4517C241.617 49.8476 240.749 45.2856 239.066 41Z" fill="black"/>
<g opacity="0.8">
<path d="M181.626 107.621C249.92 107.621 305.283 93.1802 305.283 75.3667C305.283 57.5532 249.92 43.1125 181.626 43.1125C113.332 43.1125 57.9682 57.5532 57.9682 75.3667C57.9682 93.1802 113.332 107.621 181.626 107.621Z" fill="url(#paint3_linear_0_8)"/>
</g>
<path d="M181.626 44C115.354 44 61.6259 57.8767 61.6259 75H301.626C301.626 57.8767 247.898 44 181.626 44Z" fill="white"/>
<path d="M181.626 107C247.898 107 301.626 93.1214 301.626 76H61.6259C61.6259 93.1214 115.354 107 181.626 107Z" fill="white"/>
<path opacity="0.05" d="M181.626 107C247.898 107 301.626 93.1214 301.626 76H61.6259C61.6259 93.1214 115.354 107 181.626 107Z" fill="black"/>
<rect opacity="0.05" x="124.626" y="68" width="114" height="16" rx="8" fill="black"/>
<path opacity="0.5" d="M57.1335 24.049C56.367 23.7148 55.9722 22.8604 56.2147 22.0607C56.2335 22.001 56.2455 21.9394 56.2506 21.8771C56.274 21.5131 56.0553 21.177 55.7128 21.0509C55.3703 20.9248 54.9856 21.0386 54.767 21.3307C54.7311 21.3809 54.7011 21.435 54.6774 21.492C54.3445 22.2593 53.4879 22.6545 52.6874 22.41C52.6276 22.3917 52.566 22.3797 52.5037 22.3742C52.1394 22.3507 51.803 22.5693 51.6768 22.9115C51.5506 23.2537 51.6645 23.6381 51.9569 23.8565C52.0064 23.8946 52.0606 23.9262 52.1182 23.9505C52.8847 24.2847 53.2795 25.1392 53.037 25.9389C53.0186 25.9971 53.0066 26.0572 53.0012 26.118C52.9754 26.4828 53.1934 26.8209 53.5365 26.9483C53.8796 27.0757 54.2657 26.9619 54.4847 26.6688C54.5215 26.6176 54.5516 26.5619 54.5743 26.5031C54.9153 25.7445 55.7697 25.36 56.5643 25.6075C56.6241 25.6258 56.6857 25.6378 56.748 25.6433C57.1123 25.6668 57.4487 25.4482 57.5749 25.106C57.7011 24.7638 57.5872 24.3793 57.2948 24.161C57.2464 24.1165 57.1921 24.0789 57.1335 24.049Z" fill="#4D8AF0"/>
<path opacity="0.5" d="M270.132 152.049C269.371 151.707 268.985 150.854 269.232 150.061C269.251 150.001 269.263 149.939 269.268 149.877C269.291 149.513 269.072 149.177 268.728 149.051C268.384 148.925 267.998 149.039 267.779 149.331C267.743 149.381 267.713 149.435 267.689 149.492C267.355 150.259 266.495 150.654 265.691 150.41C265.631 150.392 265.57 150.38 265.507 150.374C265.141 150.351 264.804 150.569 264.677 150.911C264.55 151.254 264.665 151.638 264.958 151.856C265.008 151.895 265.062 151.926 265.12 151.951C265.881 152.293 266.266 153.145 266.02 153.939C266.001 153.997 265.989 154.057 265.984 154.118C265.958 154.483 266.177 154.821 266.521 154.948C266.866 155.076 267.253 154.962 267.473 154.669C267.51 154.618 267.54 154.562 267.563 154.503C267.905 153.745 268.763 153.36 269.56 153.607C269.62 153.626 269.682 153.638 269.745 153.643C270.11 153.667 270.448 153.448 270.575 153.106C270.701 152.764 270.587 152.379 270.294 152.161C270.245 152.117 270.19 152.079 270.132 152.049Z" fill="#4D8AF0"/>
<path opacity="0.5" d="M35.1335 211.049C34.367 210.715 33.9722 209.86 34.2147 209.061C34.2335 209.001 34.2455 208.939 34.2506 208.877C34.274 208.513 34.0553 208.177 33.7128 208.051C33.3703 207.925 32.9856 208.039 32.767 208.331C32.7311 208.381 32.7011 208.435 32.6774 208.492C32.3445 209.259 31.4879 209.654 30.6874 209.41C30.6276 209.392 30.566 209.38 30.5037 209.374C30.1394 209.351 29.803 209.569 29.6768 209.911C29.5506 210.254 29.6645 210.638 29.9569 210.856C30.0064 210.895 30.0606 210.926 30.1182 210.951C30.8847 211.285 31.2795 212.139 31.037 212.939C31.0186 212.997 31.0066 213.057 31.0012 213.118C30.9754 213.483 31.1934 213.821 31.5365 213.948C31.8796 214.076 32.2657 213.962 32.4847 213.669C32.5215 213.618 32.5516 213.562 32.5743 213.503C32.9153 212.745 33.7697 212.36 34.5643 212.607C34.6241 212.626 34.6857 212.638 34.748 212.643C35.1123 212.667 35.4487 212.448 35.5749 212.106C35.7011 211.764 35.5872 211.379 35.2948 211.161C35.2464 211.117 35.1921 211.079 35.1335 211.049Z" fill="#4D8AF0"/>
<path opacity="0.5" d="M12.1111 73.049C11.3534 72.7068 10.9691 71.8545 11.2147 71.0607C11.2335 71.001 11.2455 70.9394 11.2506 70.8771C11.274 70.5131 11.0553 70.177 10.7128 70.0509C10.3703 69.9248 9.98556 70.0386 9.76704 70.3307C9.73115 70.3809 9.70108 70.435 9.6774 70.492C9.34447 71.2593 8.4879 71.6545 7.68742 71.41C7.62759 71.3917 7.566 71.3797 7.50366 71.3742C7.1394 71.3507 6.80304 71.5693 6.6768 71.9115C6.55056 72.2537 6.6645 72.6381 6.95687 72.8565C7.00638 72.8946 7.06061 72.9262 7.11822 72.9505C7.88468 73.2847 8.27952 74.1392 8.03701 74.9389C8.01863 74.9971 8.00661 75.0572 8.00116 75.118C7.97541 75.4828 8.19342 75.8209 8.53653 75.9483C8.87964 76.0757 9.26573 75.9619 9.48467 75.6688C9.52151 75.6176 9.55163 75.5619 9.57431 75.5031C9.91533 74.7445 10.7697 74.36 11.5643 74.6075C11.6241 74.6258 11.6857 74.6378 11.748 74.6433C12.1123 74.6668 12.4487 74.4482 12.5749 74.106C12.7011 73.7638 12.5872 73.3793 12.2948 73.161C12.2395 73.1148 12.1776 73.077 12.1111 73.049Z" fill="#4D8AF0"/>
<path opacity="0.5" d="M266.133 3.02454C265.388 2.68504 265.01 1.83959 265.252 1.05217C265.27 0.99299 265.282 0.931894 265.287 0.870041C265.31 0.509005 265.095 0.175613 264.758 0.0504942C264.422 -0.0746248 264.043 0.0382993 263.828 0.328085C263.793 0.377859 263.764 0.43151 263.74 0.488007C263.405 1.24051 262.565 1.62196 261.784 1.37646C261.725 1.35829 261.664 1.34638 261.603 1.34092C261.211 1.25791 260.817 1.4767 260.677 1.85561C260.537 2.23452 260.693 2.65967 261.044 2.85573C261.092 2.89359 261.146 2.92494 261.202 2.94902C261.947 3.28852 262.325 4.13397 262.084 4.92139C262.065 4.97916 262.054 5.03874 262.048 5.09908C262.01 5.47564 262.233 5.82947 262.588 5.95424C262.942 6.07901 263.335 5.94207 263.538 5.62326C263.574 5.57249 263.603 5.51725 263.626 5.4589C263.961 4.7064 264.801 4.32495 265.582 4.57045C265.641 4.58862 265.702 4.60053 265.763 4.60599C266.121 4.62927 266.452 4.41245 266.576 4.07298C266.7 3.73352 266.588 3.35219 266.3 3.1356C266.25 3.09082 266.194 3.05344 266.133 3.02454Z" fill="#4D8AF0"/>
<g opacity="0.5">
<rect x="46.5082" y="107.378" width="1.23529" height="7.55556" fill="#47E6B1"/>
<path d="M50.6259 110.489V111.822H43.6259V110.489H50.6259Z" fill="#47E6B1"/>
</g>
<g opacity="0.5">
<rect x="348.508" y="74.3778" width="1.23529" height="7.55556" fill="#47E6B1"/>
<path d="M352.626 77.4889V78.8222H345.626V77.4889H352.626Z" fill="#47E6B1"/>
</g>
<g opacity="0.5">
<rect x="306.508" y="190.378" width="1.23529" height="7.55556" fill="#47E6B1"/>
<path d="M310.626 193.489V194.822H303.626V193.489H310.626Z" fill="#47E6B1"/>
</g>
<path opacity="0.5" d="M303.126 37C304.507 37 305.626 35.8807 305.626 34.5C305.626 33.1193 304.507 32 303.126 32C301.745 32 300.626 33.1193 300.626 34.5C300.626 35.8807 301.745 37 303.126 37Z" fill="#F55F44"/>
<path opacity="0.5" d="M3.12585 8C4.50657 8 5.62585 6.88071 5.62585 5.5C5.62585 4.11929 4.50657 3 3.12585 3C1.74514 3 0.625854 4.11929 0.625854 5.5C0.625854 6.88071 1.74514 8 3.12585 8Z" fill="#F55F44"/>
<path opacity="0.5" d="M79.1259 152C80.5066 152 81.6259 150.881 81.6259 149.5C81.6259 148.119 80.5066 147 79.1259 147C77.7451 147 76.6259 148.119 76.6259 149.5C76.6259 150.881 77.7451 152 79.1259 152Z" fill="#F55F44"/>
<path opacity="0.05" d="M98.6259 68C106.358 68 112.626 66.6569 112.626 65C112.626 63.3431 106.358 62 98.6259 62C90.8939 62 84.6259 63.3431 84.6259 65C84.6259 66.6569 90.8939 68 98.6259 68Z" fill="black"/>
<path opacity="0.05" d="M98.6259 90C106.358 90 112.626 88.6569 112.626 87C112.626 85.3431 106.358 84 98.6259 84C90.8939 84 84.6259 85.3431 84.6259 87C84.6259 88.6569 90.8939 90 98.6259 90Z" fill="black"/>
<path opacity="0.05" d="M260.626 68C268.358 68 274.626 66.6569 274.626 65C274.626 63.3431 268.358 62 260.626 62C252.894 62 246.626 63.3431 246.626 65C246.626 66.6569 252.894 68 260.626 68Z" fill="black"/>
<path opacity="0.05" d="M260.626 90C268.358 90 274.626 88.6569 274.626 87C274.626 85.3431 268.358 84 260.626 84C252.894 84 246.626 85.3431 246.626 87C246.626 88.6569 252.894 90 260.626 90Z" fill="black"/>
<path opacity="0.05" d="M181.626 55C189.358 55 195.626 53.6569 195.626 52C195.626 50.3431 189.358 49 181.626 49C173.894 49 167.626 50.3431 167.626 52C167.626 53.6569 173.894 55 181.626 55Z" fill="black"/>
<path opacity="0.05" d="M191.626 25C199.358 25 205.626 23.6569 205.626 22C205.626 20.3431 199.358 19 191.626 19C183.894 19 177.626 20.3431 177.626 22C177.626 23.6569 183.894 25 191.626 25Z" fill="black"/>
<path opacity="0.05" d="M164.626 37C172.358 37 178.626 35.6569 178.626 34C178.626 32.3431 172.358 31 164.626 31C156.894 31 150.626 32.3431 150.626 34C150.626 35.6569 156.894 37 164.626 37Z" fill="black"/>
<path opacity="0.05" d="M217.626 42C225.358 42 231.626 40.6569 231.626 39C231.626 37.3431 225.358 36 217.626 36C209.894 36 203.626 37.3431 203.626 39C203.626 40.6569 209.894 42 217.626 42Z" fill="black"/>
<path opacity="0.05" d="M181.626 99C189.358 99 195.626 97.6569 195.626 96C195.626 94.3431 189.358 93 181.626 93C173.894 93 167.626 94.3431 167.626 96C167.626 97.6569 173.894 99 181.626 99Z" fill="black"/>
<path d="M114.088 266.8C121.388 266.8 125.038 269.75 125.038 275.65C125.038 281.65 121.388 284.65 114.088 284.65H108.538V293.2C108.538 297 107.488 299.9 105.388 301.9C103.288 303.9 100.538 304.9 97.1379 304.9C93.7379 304.9 90.9879 303.9 88.8879 301.9C86.7879 299.9 85.7379 297 85.7379 293.2V284.65H49.2879C46.1879 284.65 43.7379 283.75 41.9379 281.95C40.1379 280.05 39.2379 277.7 39.2379 274.9C39.2379 272.1 40.1879 269.3 42.0879 266.5L86.7879 202.6C87.9879 200.9 89.4879 199.65 91.2879 198.85C93.0879 197.95 94.9879 197.5 96.9879 197.5C100.088 197.5 102.788 198.55 105.088 200.65C107.388 202.65 108.538 205.45 108.538 209.05V266.8H114.088ZM62.7879 266.8H85.7379V233.8L62.7879 266.8ZM176.029 305.35C163.229 305.35 153.429 300.7 146.629 291.4C139.929 282.1 136.579 268.65 136.579 251.05C136.579 233.55 139.929 220.15 146.629 210.85C153.429 201.55 163.229 196.9 176.029 196.9C188.829 196.9 198.579 201.55 205.279 210.85C212.079 220.15 215.479 233.55 215.479 251.05C215.479 268.65 212.079 282.1 205.279 291.4C198.579 300.7 188.829 305.35 176.029 305.35ZM176.029 287.5C181.829 287.5 186.029 284.6 188.629 278.8C191.329 273 192.679 263.75 192.679 251.05C192.679 238.25 191.329 229 188.629 223.3C186.029 217.6 181.829 214.75 176.029 214.75C170.229 214.75 165.979 217.65 163.279 223.45C160.679 229.15 159.379 238.35 159.379 251.05C159.379 263.75 160.679 273 163.279 278.8C165.979 284.6 170.229 287.5 176.029 287.5ZM303.971 266.8C311.271 266.8 314.921 269.75 314.921 275.65C314.921 281.65 311.271 284.65 303.971 284.65H298.421V293.2C298.421 297 297.371 299.9 295.271 301.9C293.171 303.9 290.421 304.9 287.021 304.9C283.621 304.9 280.871 303.9 278.771 301.9C276.671 299.9 275.621 297 275.621 293.2V284.65H239.171C236.071 284.65 233.621 283.75 231.821 281.95C230.021 280.05 229.121 277.7 229.121 274.9C229.121 272.1 230.071 269.3 231.971 266.5L276.671 202.6C277.871 200.9 279.371 199.65 281.171 198.85C282.971 197.95 284.871 197.5 286.871 197.5C289.971 197.5 292.671 198.55 294.971 200.65C297.271 202.65 298.421 205.45 298.421 209.05V266.8H303.971ZM252.671 266.8H275.621V233.8L252.671 266.8Z" fill="#0F70EB"/>
</g>
<defs>
<linearGradient id="paint0_linear_0_8" x1="243.403" y1="102.908" x2="243.403" y2="8.35417" gradientUnits="userSpaceOnUse">
<stop stop-color="#808080" stop-opacity="0.25"/>
<stop offset="0.54" stop-color="#808080" stop-opacity="0.12"/>
<stop offset="1" stop-color="#808080" stop-opacity="0.1"/>
</linearGradient>
<linearGradient id="paint1_linear_0_8" x1="191.899" y1="279.774" x2="227.057" y2="211.191" gradientUnits="userSpaceOnUse">
<stop stop-color="#808080" stop-opacity="0.25"/>
<stop offset="0.54" stop-color="#808080" stop-opacity="0.12"/>
<stop offset="1" stop-color="#808080" stop-opacity="0.1"/>
</linearGradient>
<linearGradient id="paint2_linear_0_8" x1="196.971" y1="115.372" x2="232.129" y2="46.7893" gradientUnits="userSpaceOnUse">
<stop stop-color="#808080" stop-opacity="0.25"/>
<stop offset="0.54" stop-color="#808080" stop-opacity="0.12"/>
<stop offset="1" stop-color="#808080" stop-opacity="0.1"/>
</linearGradient>
<linearGradient id="paint3_linear_0_8" x1="305.283" y1="107.621" x2="305.283" y2="43.1125" gradientUnits="userSpaceOnUse">
<stop stop-color="#808080" stop-opacity="0.25"/>
<stop offset="0.54" stop-color="#808080" stop-opacity="0.12"/>
<stop offset="1" stop-color="#808080" stop-opacity="0.1"/>
</linearGradient>
<clipPath id="clip0_0_8">
<rect width="353" height="330" fill="white"/>
</clipPath>
</defs>
</svg>
