<svg width="20" height="18" viewBox="0 0 20 18" fill="none" xmlns="http://www.w3.org/2000/svg">
<path fill-rule="evenodd" clip-rule="evenodd" d="M13 9.91252V15C13 15.3788 12.786 15.725 12.4472 15.8944L8.44722 17.8944C7.78232 18.2269 7 17.7434 7 17V9.91252L0.226047 1.63324C-0.308169 0.980307 0.156378 0 1 0H19C19.8436 0 20.3082 0.980307 19.774 1.63324L13 9.91252ZM11 14.382V9.55556C11 9.32471 11.0799 9.10098 11.226 8.92232L16.8898 2H3.11025L8.77396 8.92232C8.92014 9.10098 9 9.32471 9 9.55556V15.382L11 14.382Z" fill="#B5B5BE"/>
</svg>
