<svg width="24" height="24" viewBox="0 0 24 24" fill="none" xmlns="http://www.w3.org/2000/svg">
<path fill-rule="evenodd" clip-rule="evenodd" d="M21.1168 22.6353C22.195 22.3957 22.8749 21.3273 22.6353 20.2491L21.8786 16.8439C22.6123 15.3503 23 13.7022 23 12C23 5.92487 18.0751 1 12 1C5.92487 1 1 5.92487 1 12C1 18.0751 5.92487 23 12 23C13.7022 23 15.3503 22.6123 16.8439 21.8786L20.2491 22.6353C20.5348 22.6988 20.831 22.6988 21.1168 22.6353ZM21 12C21 13.5 20.6335 14.9449 19.9424 16.2373C19.8296 16.4481 19.7961 16.6924 19.848 16.9258L20.6829 20.6829L16.9258 19.848C16.6924 19.7961 16.4481 19.8296 16.2373 19.9424C14.9449 20.6335 13.5 21 12 21C7.02944 21 3 16.9706 3 12C3 7.02944 7.02944 3 12 3C16.9706 3 21 7.02944 21 12ZM11 12C11 13.1046 10.1046 14 9 14C7.89543 14 7 13.1046 7 12C7 10.8954 7.89543 10 9 10C10.1046 10 11 10.8954 11 12ZM15 14C16.1046 14 17 13.1046 17 12C17 10.8954 16.1046 10 15 10C13.8954 10 13 10.8954 13 12C13 13.1046 13.8954 14 15 14Z" fill="#B5B5BE"/>
<circle cx="20" cy="4" r="4" fill="#FC5A5A"/>
</svg>
