<svg width="20" height="22" viewBox="0 0 20 22" fill="none" xmlns="http://www.w3.org/2000/svg">
<path fill-rule="evenodd" clip-rule="evenodd" d="M4 0H13.5316C14.1252 0 14.6881 0.263646 15.0681 0.719631L19.5364 6.08168C19.836 6.44111 20 6.89418 20 7.36205V18C20 20.2091 18.2091 22 16 22H4C1.79086 22 0 20.2091 0 18V4C0 1.79086 1.79086 0 4 0ZM18 18V8H15C13.8954 8 13 7.10457 13 6V2H4C2.89543 2 2 2.89543 2 4V18C2 19.1046 2.89543 20 4 20H16C17.1046 20 18 19.1046 18 18ZM16.865 6L15 3.76205V6H16.865ZM6 13C5.44772 13 5 12.5523 5 12C5 11.4477 5.44772 11 6 11H14C14.5523 11 15 11.4477 15 12C15 12.5523 14.5523 13 14 13H6ZM6 17C5.44772 17 5 16.5523 5 16C5 15.4477 5.44772 15 6 15H12C12.5523 15 13 15.4477 13 16C13 16.5523 12.5523 17 12 17H6ZM6 9C5.44772 9 5 8.55229 5 8C5 7.44772 5.44772 7 6 7H9C9.55229 7 10 7.44772 10 8C10 8.55229 9.55229 9 9 9H6Z" fill="#B5B5BE"/>
</svg>
