<svg width="22" height="22" viewBox="0 0 22 22" fill="none" xmlns="http://www.w3.org/2000/svg">
<path fill-rule="evenodd" clip-rule="evenodd" d="M11 6C9.34315 6 8 4.65685 8 3C8 1.34315 9.34315 0 11 0C12.6569 0 14 1.34315 14 3C14 4.65685 12.6569 6 11 6ZM11 4C11.5523 4 12 3.55228 12 3C12 2.44772 11.5523 2 11 2C10.4477 2 10 2.44772 10 3C10 3.55228 10.4477 4 11 4ZM10 6H12C13.6569 6 15 7.34315 15 9V10C15 11.6569 13.6569 13 12 13H10C8.34315 13 7 11.6569 7 10V9C7 7.34315 8.34315 6 10 6ZM10 8C9.44771 8 9 8.44771 9 9V10C9 10.5523 9.44771 11 10 11H12C12.5523 11 13 10.5523 13 10V9C13 8.44771 12.5523 8 12 8H10ZM18 15C16.3431 15 15 13.6569 15 12C15 10.3431 16.3431 9 18 9C19.6569 9 21 10.3431 21 12C21 13.6569 19.6569 15 18 15ZM18 13C18.5523 13 19 12.5523 19 12C19 11.4477 18.5523 11 18 11C17.4477 11 17 11.4477 17 12C17 12.5523 17.4477 13 18 13ZM17 15H19C20.6569 15 22 16.3431 22 18V19C22 20.6569 20.6569 22 19 22H17C15.3431 22 14 20.6569 14 19V18C14 16.3431 15.3431 15 17 15ZM17 17C16.4477 17 16 17.4477 16 18V19C16 19.5523 16.4477 20 17 20H19C19.5523 20 20 19.5523 20 19V18C20 17.4477 19.5523 17 19 17H17ZM4 15C2.34315 15 1 13.6569 1 12C1 10.3431 2.34315 9 4 9C5.65685 9 7 10.3431 7 12C7 13.6569 5.65685 15 4 15ZM4 13C4.55228 13 5 12.5523 5 12C5 11.4477 4.55228 11 4 11C3.44772 11 3 11.4477 3 12C3 12.5523 3.44772 13 4 13ZM3 15H5C6.65685 15 8 16.3431 8 18V19C8 20.6569 6.65685 22 5 22H3C1.34315 22 0 20.6569 0 19V18C0 16.3431 1.34315 15 3 15ZM3 17C2.44772 17 2 17.4477 2 18V19C2 19.5523 2.44772 20 3 20H5C5.55228 20 6 19.5523 6 19V18C6 17.4477 5.55228 17 5 17H3Z" fill="#B5B5BE"/>
</svg>
