<svg width="22" height="22" viewBox="0 0 22 22" fill="none" xmlns="http://www.w3.org/2000/svg">
<path fill-rule="evenodd" clip-rule="evenodd" d="M7 0H15C18.866 0 22 3.13401 22 7V15C22 18.866 18.866 22 15 22H7C3.13401 22 0 18.866 0 15V7C0 3.13401 3.13401 0 7 0ZM7 2C4.23858 2 2 4.23858 2 7V15C2 17.7614 4.23858 20 7 20H15C17.7614 20 20 17.7614 20 15V7C20 4.23858 17.7614 2 15 2H7ZM7.29289 8.70711L9.41421 10.8284L7.29289 12.9497C6.90237 13.3403 6.90237 13.9734 7.29289 14.364C7.68342 14.7545 8.31658 14.7545 8.70711 14.364L10.8284 12.2426L12.9497 14.364C13.3403 14.7545 13.9734 14.7545 14.364 14.364C14.7545 13.9734 14.7545 13.3403 14.364 12.9497L12.2426 10.8284L14.364 8.70711C14.7545 8.31658 14.7545 7.68342 14.364 7.29289C13.9734 6.90237 13.3403 6.90237 12.9497 7.29289L10.8284 9.41421L8.70711 7.29289C8.31658 6.90237 7.68342 6.90237 7.29289 7.29289C6.90237 7.68342 6.90237 8.31658 7.29289 8.70711Z" fill="#D5D5DC"/>
</svg>
