<svg width="18" height="22" viewBox="0 0 18 22" fill="none" xmlns="http://www.w3.org/2000/svg">
<path fill-rule="evenodd" clip-rule="evenodd" d="M8.53275 16.5013C7.55297 17.4259 6.00898 17.4088 5.0501 16.4499C4.07379 15.4736 4.07379 13.8907 5.0501 12.9144L12.8283 5.13619C13.0235 4.94093 13.3401 4.94093 13.5354 5.13619C13.7306 5.33145 13.7306 5.64804 13.5354 5.8433L5.75721 13.6215C5.17142 14.2073 5.17142 15.157 5.75721 15.7428C6.343 16.3286 7.29274 16.3286 7.87853 15.7428L15.6567 7.96462C17.0235 6.59778 17.0235 4.38171 15.6567 3.01487C14.2899 1.64804 12.0738 1.64804 10.707 3.01487L2.92878 10.793C0.7809 12.9409 0.7809 16.4233 2.92878 18.5712C5.07667 20.7191 8.55908 20.7191 10.707 18.5712L17.0709 12.2073C17.2662 12.012 17.5828 12.012 17.778 12.2073C17.9733 12.4025 17.9733 12.7191 17.778 12.9144L11.4141 19.2783C8.87566 21.8167 4.76009 21.8167 2.22168 19.2783C-0.29933 16.7573 -0.316612 12.6807 2.16983 10.1384L9.99985 2.30777C11.7572 0.550406 14.6065 0.550406 16.3638 2.30777C18.1212 4.06512 18.1212 6.91437 16.3638 8.67173L8.5335 16.502L8.53275 16.5013Z" fill="#D5D5DC"/>
</svg>
