<svg width="24" height="25" viewBox="0 0 24 25" fill="none" xmlns="http://www.w3.org/2000/svg">
<path fill-rule="evenodd" clip-rule="evenodd" d="M12.5139 18.2841L8.06545 21.6848C7.0587 22.4545 5.61004 21.7355 5.60796 20.4701L5.60414 18.1541C3.53288 17.656 2 15.7858 2 13.564V7.72006C2 5.11409 4.10604 3 6.70588 3H17.2941C19.894 3 22 5.11409 22 7.72006V13.564C22 16.17 19.894 18.2841 17.2941 18.2841H12.5139ZM7.60639 19.5183L11.5682 16.4896C11.7426 16.3563 11.956 16.2841 12.1755 16.2841H17.2941C18.7877 16.2841 20 15.0671 20 13.564V7.72006C20 6.21696 18.7877 5 17.2941 5H6.70588C5.21232 5 4 6.21696 4 7.72006V13.564C4 15.0388 5.16906 16.243 6.63013 16.2831C7.17089 16.2979 7.60181 16.7401 7.6027 17.281L7.60639 19.5183Z" fill="#92929D"/>
</svg>
