<svg width="34" height="34" viewBox="0 0 34 34" fill="none" xmlns="http://www.w3.org/2000/svg">
<circle opacity="0.1" cx="17" cy="17" r="17" fill="#82C43C"/>
<path fill-rule="evenodd" clip-rule="evenodd" d="M11.9528 22.9599C11.9544 23.954 12.7616 24.7586 13.7557 24.757C14.1558 24.7563 14.5442 24.6224 14.8597 24.3764L17.841 22.0515H23.4167C25.0736 22.0515 26.4167 20.7084 26.4167 19.0515V11.3999C26.4167 9.74305 25.0736 8.3999 23.4167 8.3999H11.5834C9.92656 8.3999 8.58341 9.74305 8.58341 11.3999V19.0515C8.58341 20.7084 9.92656 22.0515 11.5834 22.0515H11.9513L11.9528 22.9599ZM13.9497 21.0499C13.9488 20.4982 13.5014 20.0515 12.9497 20.0515H11.5834C11.0311 20.0515 10.5834 19.6038 10.5834 19.0515V11.3999C10.5834 10.8476 11.0311 10.3999 11.5834 10.3999H23.4167C23.969 10.3999 24.4167 10.8476 24.4167 11.3999V19.0515C24.4167 19.6038 23.969 20.0515 23.4167 20.0515H17.4827C17.1972 20.0515 16.9467 20.1686 16.7677 20.3522L13.9521 22.5479L13.9497 21.0499Z" fill="#82C43C"/>
</svg>
