<svg width="24" height="24" viewBox="0 0 24 24" fill="none" xmlns="http://www.w3.org/2000/svg">
<path fill-rule="evenodd" clip-rule="evenodd" d="M13.1666 20.1267L13.6206 19.7764C14.1308 19.3828 14.8634 19.4773 15.257 19.9875C15.6506 20.4977 15.556 21.2303 15.0459 21.6239L12.7323 23.4087C12.662 23.4654 12.5861 23.5131 12.5065 23.5514C12.4442 23.5829 12.3604 23.6137 12.2729 23.6347C12.1604 23.6611 12.0522 23.6707 11.945 23.6656C11.7805 23.6579 11.625 23.6163 11.4852 23.5474C11.4085 23.5098 11.3355 23.4635 11.2676 23.4087L8.95397 21.6239C8.4438 21.2303 8.34928 20.4977 8.74285 19.9875C9.13641 19.4773 9.86903 19.3828 10.3792 19.7764L10.8333 20.1267V7.86679C10.8333 7.22245 11.3556 6.70012 11.9999 6.70012C12.6443 6.70012 13.1666 7.22245 13.1666 7.86679V20.1267ZM12.5833 0.333496C15.571 0.333496 18.1104 2.38805 18.8096 5.20125C21.6174 5.90265 23.6666 8.44658 23.6666 11.4378C23.6666 14.7216 21.1966 17.4681 17.9617 17.8264C17.3213 17.8973 16.7446 17.4357 16.6737 16.7953C16.6027 16.1549 17.0644 15.5782 17.7048 15.5073C19.7599 15.2796 21.3333 13.5301 21.3333 11.4378C21.3333 9.33714 19.7475 7.58318 17.6823 7.36596C17.1343 7.30833 16.7014 6.8752 16.644 6.32722C16.427 4.25563 14.6771 2.66683 12.5833 2.66683C10.4876 2.66683 8.73666 4.25834 8.52198 6.33216C8.45505 6.97878 7.87251 7.44596 7.22678 7.37089C7.06952 7.3526 6.91042 7.34338 6.74992 7.34338C4.49531 7.34338 2.66659 9.17597 2.66659 11.4378C2.66659 13.5301 4.23998 15.2796 6.29504 15.5073C6.93546 15.5782 7.3971 16.1549 7.32616 16.7953C7.25521 17.4357 6.67854 17.8973 6.03813 17.8264C2.80326 17.4681 0.333252 14.7216 0.333252 11.4378C0.333252 8.00429 3.02105 5.19871 6.40499 5.01917C7.16648 2.30004 9.66016 0.333496 12.5833 0.333496Z" fill="#FAFAFB"/>
</svg>
