<svg width="22" height="22" viewBox="0 0 22 22" fill="none" xmlns="http://www.w3.org/2000/svg">
<path fill-rule="evenodd" clip-rule="evenodd" d="M0.5 11C0.5 16.799 5.20101 21.5 11 21.5C16.799 21.5 21.5 16.799 21.5 11C21.5 5.20101 16.799 0.5 11 0.5C5.20101 0.5 0.5 5.20101 0.5 11ZM20.5 11C20.5 16.2467 16.2467 20.5 11 20.5C5.75329 20.5 1.5 16.2467 1.5 11C1.5 5.75329 5.75329 1.5 11 1.5C16.2467 1.5 20.5 5.75329 20.5 11ZM6.70702 15.4196C6.48593 15.2541 6.44083 14.9408 6.60628 14.7197C6.77173 14.4986 7.08508 14.4535 7.30617 14.619C9.3073 16.1165 12.7545 16.1258 14.6977 14.6237C14.9162 14.4548 15.2302 14.495 15.3991 14.7135C15.568 14.932 15.5278 15.246 15.3093 15.4149C13.007 17.1945 9.0646 17.1839 6.70702 15.4196ZM9 9C9 9.55228 8.55228 10 8 10C7.44772 10 7 9.55228 7 9C7 8.44772 7.44772 8 8 8C8.55228 8 9 8.44772 9 9ZM15 9C15 9.55228 14.5523 10 14 10C13.4477 10 13 9.55228 13 9C13 8.44772 13.4477 8 14 8C14.5523 8 15 8.44772 15 9Z" fill="#D5D5DC"/>
</svg>
