<svg width="22" height="22" viewBox="0 0 22 22" fill="none" xmlns="http://www.w3.org/2000/svg">
<path fill-rule="evenodd" clip-rule="evenodd" d="M11 22C4.92487 22 0 17.0751 0 11C0 4.92487 4.92487 0 11 0C17.0751 0 22 4.92487 22 11C22 17.0751 17.0751 22 11 22ZM11 20C15.9706 20 20 15.9706 20 11C20 6.02944 15.9706 2 11 2C6.02944 2 2 6.02944 2 11C2 15.9706 6.02944 20 11 20ZM6.40744 15.8199C5.96526 15.489 5.87506 14.8623 6.20596 14.4201C6.53687 13.9779 7.16357 13.8877 7.60575 14.2186C9.42865 15.5828 12.6282 15.5915 14.3919 14.2281C14.8288 13.8903 15.4569 13.9707 15.7947 14.4077C16.1324 14.8446 16.052 15.4727 15.6151 15.8105C13.1333 17.7289 8.94325 17.7176 6.40744 15.8199ZM7.5 10C6.67157 10 6 9.32843 6 8.5C6 7.67157 6.67157 7 7.5 7C8.32843 7 9 7.67157 9 8.5C9 9.32843 8.32843 10 7.5 10ZM14.5 10C13.6716 10 13 9.32843 13 8.5C13 7.67157 13.6716 7 14.5 7C15.3284 7 16 7.67157 16 8.5C16 9.32843 15.3284 10 14.5 10Z" fill="#92929D"/>
</svg>
