<svg width="16" height="18" viewBox="0 0 16 18" fill="none" xmlns="http://www.w3.org/2000/svg">
<path fill-rule="evenodd" clip-rule="evenodd" d="M1.71391 7.79446L8.23917 1.2692C9.93144 -0.423068 12.6752 -0.423068 14.3674 1.2692C16.0597 2.96148 16.0597 5.70519 14.3674 7.39746L7.84217 13.9227C6.79726 14.9205 5.14126 14.9062 4.11438 13.8793C3.07298 12.8379 3.07298 11.1494 4.11438 10.108L10.5962 3.62623C10.9867 3.2357 11.6199 3.2357 12.0104 3.62623C12.4009 4.01675 12.4009 4.64992 12.0104 5.04044L5.5286 11.5223C5.26825 11.7826 5.26825 12.2047 5.5286 12.4651C5.78895 12.7254 6.21105 12.7254 6.4714 12.4651L12.9532 5.98325C13.8644 5.07203 13.8644 3.59464 12.9532 2.68342C12.042 1.77219 10.5646 1.77219 9.65339 2.68342L3.17157 9.16523C1.60948 10.7273 1.60948 13.26 3.17157 14.8221C4.73367 16.3842 7.26633 16.3842 8.82843 14.8221L14.1317 9.51878C14.5223 9.12826 15.1554 9.12826 15.5459 9.51878C15.9365 9.90931 15.9365 10.5425 15.5459 10.933L10.2426 16.2363C7.89949 18.5794 4.1005 18.5794 1.75736 16.2363C-0.571287 13.9077 -0.585697 10.1411 1.71413 7.79468L1.71391 7.79446Z" fill="#92929D"/>
</svg>
