<svg width="34" height="34" viewBox="0 0 34 34" fill="none" xmlns="http://www.w3.org/2000/svg">
<circle opacity="0.1" cx="17" cy="17" r="17" fill="#0073FF"/>
<path fill-rule="evenodd" clip-rule="evenodd" d="M17.0001 11.4165C15.4813 11.4165 14.2501 10.1853 14.2501 8.6665C14.2501 7.14772 15.4813 5.9165 17.0001 5.9165C18.5189 5.9165 19.7501 7.14772 19.7501 8.6665C19.7501 10.1853 18.5189 11.4165 17.0001 11.4165ZM17.0001 9.58317C17.5063 9.58317 17.9167 9.17277 17.9167 8.6665C17.9167 8.16024 17.5063 7.74984 17.0001 7.74984C16.4938 7.74984 16.0834 8.16024 16.0834 8.6665C16.0834 9.17277 16.4938 9.58317 17.0001 9.58317ZM16.0834 11.4165H17.9167C19.4355 11.4165 20.6667 12.6477 20.6667 14.1665V15.0832C20.6667 16.602 19.4355 17.8332 17.9167 17.8332H16.0834C14.5646 17.8332 13.3334 16.602 13.3334 15.0832V14.1665C13.3334 12.6477 14.5646 11.4165 16.0834 11.4165ZM16.0834 13.2498C15.5772 13.2498 15.1667 13.6602 15.1667 14.1665V15.0832C15.1667 15.5894 15.5772 15.9998 16.0834 15.9998H17.9167C18.423 15.9998 18.8334 15.5894 18.8334 15.0832V14.1665C18.8334 13.6602 18.423 13.2498 17.9167 13.2498H16.0834ZM23.4167 19.6665C21.898 19.6665 20.6667 18.4353 20.6667 16.9165C20.6667 15.3977 21.898 14.1665 23.4167 14.1665C24.9355 14.1665 26.1667 15.3977 26.1667 16.9165C26.1667 18.4353 24.9355 19.6665 23.4167 19.6665ZM23.4167 17.8332C23.923 17.8332 24.3334 17.4228 24.3334 16.9165C24.3334 16.4102 23.923 15.9998 23.4167 15.9998C22.9105 15.9998 22.5001 16.4102 22.5001 16.9165C22.5001 17.4228 22.9105 17.8332 23.4167 17.8332ZM22.5001 19.6665H24.3334C25.8522 19.6665 27.0834 20.8977 27.0834 22.4165V23.3332C27.0834 24.852 25.8522 26.0832 24.3334 26.0832H22.5001C20.9813 26.0832 19.7501 24.852 19.7501 23.3332V22.4165C19.7501 20.8977 20.9813 19.6665 22.5001 19.6665ZM22.5001 21.4998C21.9938 21.4998 21.5834 21.9102 21.5834 22.4165V23.3332C21.5834 23.8394 21.9938 24.2498 22.5001 24.2498H24.3334C24.8397 24.2498 25.2501 23.8394 25.2501 23.3332V22.4165C25.2501 21.9102 24.8397 21.4998 24.3334 21.4998H22.5001ZM10.5834 19.6665C9.06463 19.6665 7.83341 18.4353 7.83341 16.9165C7.83341 15.3977 9.06463 14.1665 10.5834 14.1665C12.1022 14.1665 13.3334 15.3977 13.3334 16.9165C13.3334 18.4353 12.1022 19.6665 10.5834 19.6665ZM10.5834 17.8332C11.0897 17.8332 11.5001 17.4228 11.5001 16.9165C11.5001 16.4102 11.0897 15.9998 10.5834 15.9998C10.0772 15.9998 9.66675 16.4102 9.66675 16.9165C9.66675 17.4228 10.0772 17.8332 10.5834 17.8332ZM9.66675 19.6665H11.5001C13.0189 19.6665 14.2501 20.8977 14.2501 22.4165V23.3332C14.2501 24.852 13.0189 26.0832 11.5001 26.0832H9.66675C8.14796 26.0832 6.91675 24.852 6.91675 23.3332V22.4165C6.91675 20.8977 8.14796 19.6665 9.66675 19.6665ZM9.66675 21.4998C9.16049 21.4998 8.75008 21.9102 8.75008 22.4165V23.3332C8.75008 23.8394 9.16049 24.2498 9.66675 24.2498H11.5001C12.0063 24.2498 12.4167 23.8394 12.4167 23.3332V22.4165C12.4167 21.9102 12.0063 21.4998 11.5001 21.4998H9.66675Z" fill="#0062FF"/>
</svg>
