<svg width="22" height="22" viewBox="0 0 22 22" fill="none" xmlns="http://www.w3.org/2000/svg">
<path fill-rule="evenodd" clip-rule="evenodd" d="M11 0C17.0751 0 22 4.92487 22 11C22 17.0751 17.0751 22 11 22C4.92487 22 0 17.0751 0 11C0 4.92487 4.92487 0 11 0ZM11 2C6.02944 2 2 6.02944 2 11C2 15.9706 6.02944 20 11 20C15.9706 20 20 15.9706 20 11C20 6.02944 15.9706 2 11 2ZM9.41421 10.8284L7.29289 8.70711C6.90237 8.31658 6.90237 7.68342 7.29289 7.29289C7.68342 6.90237 8.31658 6.90237 8.70711 7.29289L10.8284 9.41421L12.9497 7.29289C13.3403 6.90237 13.9734 6.90237 14.364 7.29289C14.7545 7.68342 14.7545 8.31658 14.364 8.70711L12.2426 10.8284L14.364 12.9497C14.7545 13.3403 14.7545 13.9734 14.364 14.364C13.9734 14.7545 13.3403 14.7545 12.9497 14.364L10.8284 12.2426L8.70711 14.364C8.31658 14.7545 7.68342 14.7545 7.29289 14.364C6.90237 13.9734 6.90237 13.3403 7.29289 12.9497L9.41421 10.8284Z" fill="#D5D5DC"/>
</svg>
