<svg width="34" height="34" viewBox="0 0 34 34" fill="none" xmlns="http://www.w3.org/2000/svg">
<circle opacity="0.1" cx="17" cy="17" r="17" fill="#FFC542"/>
<path fill-rule="evenodd" clip-rule="evenodd" d="M17.0652 10.1349C19.1853 7.95504 22.6345 7.95504 24.7547 10.1349C26.8597 12.2992 26.8597 15.797 24.7547 17.9613L18.3143 24.583C17.6084 25.3088 16.4477 25.325 15.7218 24.619C15.7037 24.6012 15.7037 24.6012 15.6858 24.583L9.2455 17.9613C7.1405 15.797 7.1405 12.2992 9.2455 10.1349C11.3656 7.95504 14.8148 7.95504 16.935 10.1349L17.0001 10.2018L17.0652 10.1349ZM17.0001 23.0657L23.3209 16.5668C24.6709 15.1789 24.6709 12.9173 23.3209 11.5293C21.9861 10.1569 19.8337 10.1569 18.4989 11.5293L17.7169 12.3333C17.3243 12.737 16.6759 12.737 16.2832 12.3333L15.5013 11.5293C14.1664 10.1569 12.014 10.1569 10.6792 11.5293C9.32926 12.9173 9.32926 15.1789 10.6792 16.5668L17.0001 23.0657Z" fill="#FFC542"/>
</svg>
