<svg width="22" height="20" viewBox="0 0 22 20" fill="none" xmlns="http://www.w3.org/2000/svg">
<path fill-rule="evenodd" clip-rule="evenodd" d="M12 9.00004H14C14.5523 9.00004 15 9.44775 15 10C15 10.5523 14.5523 11 14 11H12V13C12 13.5523 11.5523 14 11 14C10.4477 14 10 13.5523 10 13V11H8C7.44772 11 7 10.5523 7 10C7 9.44775 7.44772 9.00004 8 9.00004H10V7.00004C10 6.44775 10.4477 6.00004 11 6.00004C11.5523 6.00004 12 6.44775 12 7.00004V9.00004ZM8.69613 19.0598L2.03052 12.1928C-0.67684 9.4037 -0.67684 4.89356 2.03052 2.10441C4.46229 -0.400827 8.26809 -0.67662 11 1.31651C13.7319 -0.67662 17.5377 -0.400827 19.9695 2.10441C22.6768 4.89356 22.6768 9.4037 19.9695 12.1928L13.3039 19.0598C12.6897 19.6925 11.8562 20.025 11 19.9986C10.1438 20.025 9.31026 19.6925 8.69613 19.0598ZM10.9543 17.9989H11.0457C11.3494 18.0128 11.645 17.8974 11.8688 17.6668L18.5344 10.7998C20.4885 8.78664 20.4885 5.51062 18.5344 3.49742C16.6536 1.55985 13.6385 1.49697 11.6869 3.34162C11.3014 3.70598 10.6986 3.70598 10.3131 3.34162C8.36152 1.49697 5.34638 1.55985 3.46562 3.49742C1.51146 5.51062 1.51146 8.78664 3.46562 10.7998L10.1312 17.6668C10.355 17.8974 10.6506 18.0128 10.9543 17.9989Z" fill="#92929D"/>
</svg>
