<svg width="24" height="24" viewBox="0 0 24 24" fill="none" xmlns="http://www.w3.org/2000/svg">
<path fill-rule="evenodd" clip-rule="evenodd" d="M7.85738 1.04785H17.1431C19.247 1.04785 20.9526 2.75343 20.9526 4.85738V20.2121C20.9526 21.2641 20.0998 22.1169 19.0479 22.1169C18.6153 22.1169 18.1956 21.9697 17.8579 21.6994L12.5002 17.4128L7.1426 21.6994C6.32119 22.3567 5.12253 22.2235 4.46532 21.4021C4.19508 21.0644 4.04785 20.6447 4.04785 20.2121V4.85738C4.04785 2.75343 5.75343 1.04785 7.85738 1.04785ZM7.85738 2.95261C6.8054 2.95261 5.95261 3.8054 5.95261 4.85738V20.2121L11.3102 15.9255C12.0059 15.3689 12.9945 15.3689 13.6902 15.9255L19.0479 20.2121V4.85738C19.0479 3.8054 18.1951 2.95261 17.1431 2.95261H7.85738Z" fill="#92929D"/>
</svg>
