<svg width="15" height="18" viewBox="0 0 15 18" fill="none" xmlns="http://www.w3.org/2000/svg">
<path fill-rule="evenodd" clip-rule="evenodd" d="M2.76923 4.82353C2.76923 2.15957 4.88727 0 7.5 0C10.1127 0 12.2308 2.15957 12.2308 4.82353C12.2308 6.49625 11.3957 7.9701 10.1274 8.83533C12.9737 9.92091 15 12.7192 15 16V18H0V16C0 12.7192 2.02635 9.92091 4.87257 8.83533C3.6043 7.9701 2.76923 6.49625 2.76923 4.82353ZM7.5 7.52941C8.96568 7.52941 10.1538 6.31795 10.1538 4.82353C10.1538 3.32911 8.96568 2.11765 7.5 2.11765C6.03432 2.11765 4.84615 3.32911 4.84615 4.82353C4.84615 6.31795 6.03432 7.52941 7.5 7.52941ZM7.5 10.4706C4.54347 10.4706 2.13953 12.8829 2.07813 15.8824H12.9219C12.8605 12.8829 10.4565 10.4706 7.5 10.4706Z" fill="#D5D5DC"/>
</svg>
