<svg width="22" height="22" viewBox="0 0 22 22" fill="none" xmlns="http://www.w3.org/2000/svg">
<path fill-rule="evenodd" clip-rule="evenodd" d="M12.0377 6.9746V10H14.9738C14.9113 8.81198 14.7393 7.69949 14.4857 6.70394C13.6997 6.8418 12.8791 6.93323 12.0377 6.9746ZM10.0377 6.97817C9.16986 6.93864 8.32374 6.84591 7.51427 6.70393C7.26072 7.69949 7.08873 8.81198 7.02618 10H10.0377V6.97817V6.97817ZM12.0377 14.4187C12.9278 14.4625 13.7945 14.5622 14.6218 14.7138C14.8009 13.8733 14.9232 12.9614 14.9738 12H12.0377V14.4187ZM10.0377 14.4151V12H7.02618C7.07679 12.9614 7.19908 13.8733 7.37825 14.7138C8.22878 14.558 9.12112 14.4569 10.0377 14.4151V14.4151ZM12.0377 16.4214V19.6577C12.8152 19.1441 13.5325 18.0794 14.0665 16.6465C13.4167 16.5357 12.7369 16.4595 12.0377 16.4214ZM10.0377 16.4175C9.31194 16.4541 8.60657 16.5317 7.9335 16.6465C8.48472 18.1257 9.23129 19.2124 10.0377 19.7056V16.4175ZM12.0377 4.9719C12.6548 4.9383 13.2568 4.87502 13.8364 4.78441C13.3343 3.63851 12.7084 2.78536 12.0377 2.34233V4.9719ZM10.0377 4.97585V2.29436C9.33858 2.72198 8.68444 3.59567 8.16358 4.7844C8.76672 4.87869 9.39419 4.9434 10.0377 4.97585ZM2.05493 10H5.02331C5.08564 8.66991 5.27155 7.40289 5.56376 6.24514C4.94076 6.05779 4.35285 5.83766 3.80902 5.58714C2.86225 6.84293 2.23682 8.35463 2.05493 10ZM2.05493 12C2.21544 13.452 2.72139 14.8 3.48877 15.9598C4.08216 15.6635 4.73396 15.4053 5.43124 15.1887C5.21501 14.1884 5.07562 13.1164 5.02331 12H2.05493ZM19.9451 10C19.7632 8.35462 19.1377 6.84293 18.191 5.58713C17.6471 5.83767 17.0592 6.05779 16.4362 6.24514C16.7284 7.40289 16.9144 8.66991 16.9767 10H19.9451ZM19.9451 12H16.9767C16.9244 13.1164 16.785 14.1884 16.5688 15.1887C17.266 15.4053 17.9178 15.6635 18.5112 15.9598C19.2786 14.8 19.7846 13.452 19.9451 12ZM6.8023 18.9632C6.48915 18.406 6.21136 17.7858 5.97333 17.1143C5.56714 17.2423 5.18177 17.3859 4.82103 17.5438C5.41161 18.1016 6.07768 18.5804 6.8023 18.9632ZM15.1977 18.9632C15.9223 18.5804 16.5884 18.1016 17.1789 17.5438C16.8182 17.3859 16.4328 17.2423 16.0267 17.1143C15.7886 17.7858 15.5108 18.406 15.1977 18.9632ZM6.8023 3.03684C6.26398 3.3212 5.75798 3.65854 5.29124 4.04193C5.57499 4.15037 5.87152 4.25058 6.17926 4.34205C6.36728 3.87688 6.57552 3.44033 6.8023 3.03684ZM15.1977 3.03684C15.4245 3.44033 15.6327 3.87688 15.8207 4.34204C16.1284 4.25057 16.425 4.15036 16.7087 4.04191C16.242 3.65853 15.736 3.32119 15.1977 3.03684ZM11 22C4.92487 22 0 17.0751 0 11C0 4.92487 4.92487 0 11 0C17.0751 0 22 4.92487 22 11C22 17.0751 17.0751 22 11 22Z" fill="#92929D"/>
</svg>
