<svg width="22" height="22" viewBox="0 0 22 22" fill="none" xmlns="http://www.w3.org/2000/svg">
<path fill-rule="evenodd" clip-rule="evenodd" d="M22 14.0609V18C22 20.2091 20.2091 22 18 22H4C1.79086 22 0 20.2091 0 18V4C0 1.79086 1.79086 0 4 0H18C20.2091 0 22 1.79086 22 4V13.9391C22.0025 13.9797 22.0025 14.0204 22 14.0609V14.0609ZM20 14.4125L16.0001 10.4141L12.2201 14.1941L17.4454 20H18C19.1046 20 20 19.1046 20 18V14.4125ZM20 11.5846V4C20 2.89543 19.1046 2 18 2H4C2.89543 2 2 2.89543 2 4V15.5858L7.29289 10.2929C7.69802 9.88777 8.36002 9.90518 8.74329 10.331L10.8803 12.7055L15.2929 8.29289C15.6834 7.90242 16.3164 7.90236 16.707 8.29276L20 11.5846ZM14.7546 20L7.96181 12.4524L2.03576 18.3785C2.21265 19.3021 3.02482 20 4 20H14.7546ZM7.5 8C6.11929 8 5 6.88071 5 5.5C5 4.11929 6.11929 3 7.5 3C8.88071 3 10 4.11929 10 5.5C10 6.88071 8.88071 8 7.5 8ZM7.5 6C7.77614 6 8 5.77614 8 5.5C8 5.22386 7.77614 5 7.5 5C7.22386 5 7 5.22386 7 5.5C7 5.77614 7.22386 6 7.5 6Z" fill="#B5B5BE"/>
</svg>
