<svg width="20" height="20" viewBox="0 0 20 20" fill="none" xmlns="http://www.w3.org/2000/svg">
<path fill-rule="evenodd" clip-rule="evenodd" d="M17.1 8.3H16.7119C15.9814 8.3 15.3089 8.041 14.7941 7.61064C14.2794 8.041 13.6069 8.3 12.8764 8.3H11.9175C11.187 8.3 10.5145 8.041 9.99977 7.61064C9.48499 8.041 8.81254 8.3 8.08202 8.3H7.12314C6.39262 8.3 5.72016 8.041 5.20539 7.61064C4.69062 8.041 4.01816 8.3 3.28764 8.3H2.9V18H7V12C7 11.4477 7.44772 11 8 11H12.5C13.0523 11 13.5 11.4477 13.5 12V18H17.1V8.3ZM19.1 7.5819V18.1C19.1 19.1493 18.2493 20 17.2 20H2.8C1.75066 20 0.9 19.1493 0.9 18.1V7.58212C0.347975 7.0918 0 6.38994 0 5.60282C0 5.34632 0.0380584 5.09127 0.112914 4.84536L1.15635 1.41758C1.41268 0.575496 2.18943 0 3.06966 0H16.9299C17.8101 0 18.5869 0.575496 18.8432 1.41758L19.8866 4.84536C20.1978 5.86756 19.8518 6.91213 19.1 7.5819ZM11.5 18V13H9V18H11.5ZM17.9733 5.42778L16.9299 2H3.06966L2.02623 5.42778C2.00877 5.48513 2 5.54393 2 5.60282C2 5.9732 2.34818 6.3 2.8082 6.3H3.28764C3.80817 6.3 4.20539 5.92717 4.20539 5.5C4.20539 4.16667 6.20539 4.16667 6.20539 5.5C6.20539 5.92717 6.60261 6.3 7.12314 6.3H8.08202C8.60254 6.3 8.99977 5.92717 8.99977 5.5C8.99977 4.16667 10.9998 4.16667 10.9998 5.5C10.9998 5.92717 11.397 6.3 11.9175 6.3H12.8764C13.3969 6.3 13.7941 5.92717 13.7941 5.5C13.7941 4.16667 15.7941 4.16667 15.7941 5.5C15.7941 5.92717 16.1914 6.3 16.7119 6.3H17.1913C17.272 6.3 17.3521 6.28947 17.4291 6.26883C17.855 6.15461 18.0792 5.77574 17.9733 5.42778Z" fill="#B5B5BE"/>
</svg>
