<svg width="22" height="20" viewBox="0 0 22 20" fill="none" xmlns="http://www.w3.org/2000/svg">
<path fill-rule="evenodd" clip-rule="evenodd" d="M21.5 12.852V16.65C21.5 18.5061 19.9274 20 18 20H16.2403H16.2362H4C2.07258 20 0.5 18.5061 0.5 16.65V3.35C0.5 1.49395 2.07258 0 4 0H18C19.9274 0 21.5 1.49395 21.5 3.35V12.8483C21.5 12.8495 21.5 12.8508 21.5 12.852ZM20.5 13.0708L15.7865 8.77497L11.0725 13.0284L16.4604 19H18C19.3863 19 20.5 17.942 20.5 16.65V13.0708ZM20.5 11.7178V3.35C20.5 2.05803 19.3863 1 18 1H4C2.61372 1 1.5 2.05803 1.5 3.35V15.445L7.31356 9.646C7.51602 9.44404 7.84633 9.45273 8.0379 9.66506L10.4026 12.2859L15.4533 7.72878C15.6443 7.55643 15.9349 7.55716 16.125 7.73045L20.5 11.7178ZM15.1135 19L7.64759 10.7253L1.50884 16.8487C1.61604 18.0487 2.68548 19 4 19H15.1135ZM7.19048 6.7C6.12564 6.7 5.2619 5.83843 5.2619 4.775C5.2619 3.71157 6.12564 2.85 7.19048 2.85C8.25532 2.85 9.11905 3.71157 9.11905 4.775C9.11905 5.83843 8.25532 6.7 7.19048 6.7ZM7.19048 5.7C7.70359 5.7 8.11905 5.28558 8.11905 4.775C8.11905 4.26442 7.70359 3.85 7.19048 3.85C6.67736 3.85 6.2619 4.26442 6.2619 4.775C6.2619 5.28558 6.67736 5.7 7.19048 5.7Z" fill="#92929D"/>
</svg>
