<svg width="17" height="22" viewBox="0 0 17 22" fill="none" xmlns="http://www.w3.org/2000/svg">
<path fill-rule="evenodd" clip-rule="evenodd" d="M3.85738 0.0478516H13.1431C15.247 0.0478516 16.9526 1.75343 16.9526 3.85738V19.2121C16.9526 20.2641 16.0998 21.1169 15.0479 21.1169C14.6153 21.1169 14.1956 20.9697 13.8579 20.6994L8.50023 16.4128L3.1426 20.6994C2.32119 21.3567 1.12253 21.2235 0.46532 20.4021C0.195081 20.0644 0.0478516 19.6447 0.0478516 19.2121V3.85738C0.0478516 1.75343 1.75343 0.0478516 3.85738 0.0478516ZM3.85738 1.95261C2.8054 1.95261 1.95261 2.8054 1.95261 3.85738V19.2121L7.31024 14.9255C8.00593 14.3689 8.99453 14.3689 9.69022 14.9255L15.0479 19.2121V3.85738C15.0479 2.8054 14.1951 1.95261 13.1431 1.95261H3.85738Z" fill="#D5D5DC"/>
</svg>
