<svg width="20" height="18" viewBox="0 0 20 18" fill="none" xmlns="http://www.w3.org/2000/svg">
<path fill-rule="evenodd" clip-rule="evenodd" d="M3.7 0H16.3C18.3407 0 20 1.63882 20 3.66667V14.3333C20 16.3612 18.3407 18 16.3 18H3.7C1.65931 18 0 16.3612 0 14.3333V3.66667C0 1.63882 1.65931 0 3.7 0ZM3.7 2C2.75835 2 2 2.74899 2 3.66667V14.3333C2 15.251 2.75835 16 3.7 16H16.3C17.2416 16 18 15.251 18 14.3333V3.66667C18 2.74899 17.2416 2 16.3 2H3.7ZM9.21151 13.694C8.51914 14.2671 7.55386 14.0008 7.16641 13.2316C7.05612 13.0127 7 12.7687 7 12.523V5.47691C7 4.70799 7.55229 4 8.37203 4C8.68218 4 8.97609 4.11107 9.21151 4.30596L13.4674 7.82902C14.0127 8.28043 14.1478 9.08477 13.8335 9.70857C13.7443 9.88568 13.621 10.0438 13.4674 10.1709L9.21151 13.694ZM9 6.72722V11.2727L11.7455 8.99997L9 6.72722Z" fill="#B5B5BE"/>
</svg>
