<svg width="20" height="20" viewBox="0 0 20 20" fill="none" xmlns="http://www.w3.org/2000/svg">
<path fill-rule="evenodd" clip-rule="evenodd" d="M7.63086 8.78962C7.44972 8.59895 7.41655 8.15607 7.6506 7.63026C8.52806 5.28477 8.6471 4.84953 8.0848 4.25763L4.47548 0.458348C3.78231 -0.271295 2.68097 -0.0855483 1.99996 0.631306C-0.666652 3.43826 -0.666652 7.96903 1.99996 10.776L8.74233 17.8732C11.4365 20.7092 15.827 20.7092 18.5212 17.8732C19.1798 17.1799 19.3429 16.1083 18.6855 15.4162L15.0761 11.6169C14.4712 10.9802 14.0602 11.1047 11.8056 12.0372C11.2857 12.2911 10.9292 12.2615 10.7707 12.0948L7.63086 8.78962ZM17.0113 16.5577C15.1017 18.5015 12.0782 18.4808 10.1923 16.4957L3.44995 9.39848C1.56023 7.4093 1.51766 4.19273 3.32226 2.14825L6.328 5.31219L6.32107 5.33774C6.22675 5.68264 6.05248 6.19787 5.80014 6.87393C5.28582 8.02477 5.3834 9.32768 6.18086 10.1671L9.32075 13.4723C10.1409 14.3356 11.4429 14.4436 12.6301 13.8581C13.1804 13.6327 13.6471 13.4569 13.9696 13.3559L17.0113 16.5577ZM11.7 8.20021C11.7 7.75839 11.3418 7.40021 10.9 7.40021C10.3477 7.40021 9.9 6.9525 9.9 6.40021C9.9 5.84793 10.3477 5.40021 10.9 5.40021C12.4464 5.40021 13.7 6.65382 13.7 8.20021C13.7 8.7525 13.2523 9.20021 12.7 9.20021C12.1477 9.20021 11.7 8.7525 11.7 8.20021ZM10.9 4.70021C12.833 4.70021 14.4 6.26722 14.4 8.20021C14.4 8.7525 14.8477 9.20021 15.4 9.20021C15.9523 9.20021 16.4 8.7525 16.4 8.20021C16.4 5.16265 13.9376 2.70021 10.9 2.70021C10.3477 2.70021 9.9 3.14793 9.9 3.70021C9.9 4.2525 10.3477 4.70021 10.9 4.70021ZM17.1 8.20021C17.1 4.77605 14.3242 2.00021 10.9 2.00021C10.3477 2.00021 9.9 1.5525 9.9 1.00021C9.9 0.447929 10.3477 0.000213818 10.9 0.000213818C15.4287 0.000213818 19.1 3.67148 19.1 8.20021C19.1 8.7525 18.6523 9.20021 18.1 9.20021C17.5477 9.20021 17.1 8.7525 17.1 8.20021Z" fill="#B5B5BE"/>
</svg>
