<svg width="24" height="24" viewBox="0 0 24 24" fill="none" xmlns="http://www.w3.org/2000/svg">
<path fill-rule="evenodd" clip-rule="evenodd" d="M5.7 3H18.3C20.3407 3 22 4.63882 22 6.66667V17.3333C22 19.3612 20.3407 21 18.3 21H5.7C3.65931 21 2 19.3612 2 17.3333V6.66667C2 4.63882 3.65931 3 5.7 3ZM5.7 5C4.75835 5 4 5.74899 4 6.66667V17.3333C4 18.251 4.75835 19 5.7 19H18.3C19.2416 19 20 18.251 20 17.3333V6.66667C20 5.74899 19.2416 5 18.3 5H5.7ZM11.2115 16.694C10.5191 17.2671 9.55386 17.0008 9.16641 16.2316C9.05612 16.0127 9 15.7687 9 15.523V8.47691C9 7.70799 9.55229 7 10.372 7C10.6822 7 10.9761 7.11107 11.2115 7.30596L15.4674 10.829C16.0127 11.2804 16.1478 12.0848 15.8335 12.7086C15.7443 12.8857 15.621 13.0438 15.4674 13.1709L11.2115 16.694ZM11 9.72722V14.2727L13.7455 12L11 9.72722Z" fill="#B5B5BE"/>
</svg>
