<?xml version="1.0" encoding="UTF-8"?>
<svg fill="none" viewBox="0 0 112 32" xmlns="http://www.w3.org/2000/svg">
<path d="m44.2 22.14c-0.9733 0-1.8533-0.1667-2.64-0.5-0.7733-0.3333-1.3867-0.8133-1.84-1.44s-0.6867-1.3667-0.7-2.22h3c0.04 0.5733 0.24 1.0267 0.6 1.36 0.3733 0.3333 0.88 0.5 1.52 0.5 0.6533 0 1.1667-0.1533 1.54-0.46 0.3733-0.32 0.56-0.7333 0.56-1.24 0-0.4133-0.1267-0.7533-0.38-1.02s-0.5733-0.4733-0.96-0.62c-0.3733-0.16-0.8933-0.3333-1.56-0.52-0.9067-0.2667-1.6467-0.5267-2.22-0.78-0.56-0.2667-1.0467-0.66-1.46-1.18-0.4-0.5333-0.6-1.24-0.6-2.12 0-0.8267 0.2067-1.5467 0.62-2.16 0.4133-0.61333 0.9933-1.08 1.74-1.4 0.7467-0.33333 1.6-0.5 2.56-0.5 1.44 0 2.6067 0.35333 3.5 1.06 0.9067 0.69333 1.4067 1.6667 1.5 2.92h-3.08c-0.0267-0.48-0.2333-0.8733-0.62-1.18-0.3733-0.32-0.8733-0.48-1.5-0.48-0.5467 0-0.9867 0.14-1.32 0.42-0.32 0.28-0.48 0.6867-0.48 1.22 0 0.3733 0.12 0.6867 0.36 0.94 0.2533 0.24 0.56 0.44 0.92 0.6 0.3733 0.1467 0.8933 0.32 1.56 0.52 0.9067 0.2667 1.6467 0.5333 2.22 0.8s1.0667 0.6667 1.48 1.2 0.62 1.2333 0.62 2.1c0 0.7467-0.1933 1.44-0.58 2.08s-0.9533 1.1533-1.7 1.54c-0.7467 0.3733-1.6333 0.56-2.66 0.56zm6.6475-5.7c0-1.1067 0.2267-2.0867 0.68-2.94 0.4667-0.8667 1.0933-1.54 1.88-2.02s1.6533-0.72 2.6-0.72c0.7867 0 1.48 0.1533 2.08 0.46 0.6133 0.2933 1.1067 0.6733 1.48 1.14v-1.44h2.82v16.36h-2.82v-6.8c-0.3733 0.48-0.8733 0.88-1.5 1.2s-1.3333 0.48-2.12 0.48c-0.9333 0-1.7933-0.24-2.58-0.72-0.7733-0.4933-1.3867-1.1733-1.84-2.04s-0.68-1.8533-0.68-2.96zm8.72 0.02c0-0.68-0.14-1.2667-0.42-1.76s-0.6467-0.8667-1.1-1.12c-0.44-0.2533-0.9133-0.38-1.42-0.38-0.4933 0-0.9667 0.1267-1.42 0.38-0.44 0.2533-0.8 0.6267-1.08 1.12-0.28 0.48-0.42 1.06-0.42 1.74s0.14 1.2733 0.42 1.78c0.28 0.4933 0.64 0.8667 1.08 1.12 0.4533 0.2533 0.9267 0.38 1.42 0.38 0.5067 0 0.98-0.1267 1.42-0.38 0.4533-0.2533 0.82-0.6267 1.1-1.12s0.42-1.08 0.42-1.76zm16.015-5.54v11.08h-2.82v-1.4c-0.36 0.48-0.8333 0.86-1.42 1.14-0.5733 0.2667-1.2 0.4-1.88 0.4-0.8667 0-1.6333-0.18-2.3-0.54-0.6667-0.3733-1.1933-0.9133-1.58-1.62-0.3733-0.72-0.56-1.5733-0.56-2.56v-6.5h2.8v6.1c0 0.88 0.22 1.56 0.66 2.04 0.44 0.4667 1.04 0.7 1.8 0.7 0.7733 0 1.38-0.2333 1.82-0.7 0.44-0.48 0.66-1.16 0.66-2.04v-6.1h2.82zm2.0426 5.5c0-1.12 0.22-2.1133 0.66-2.98 0.4534-0.8667 1.06-1.5333 1.82-2 0.7734-0.4667 1.6334-0.7 2.58-0.7 0.8267 0 1.5467 0.1667 2.16 0.5 0.6267 0.3333 1.1267 0.7533 1.5 1.26v-1.58h2.82v11.08h-2.82v-1.62c-0.36 0.52-0.86 0.9533-1.5 1.3-0.6266 0.3333-1.3533 0.5-2.18 0.5-0.9333 0-1.7866-0.24-2.56-0.72-0.76-0.48-1.3666-1.1533-1.82-2.02-0.44-0.88-0.66-1.8867-0.66-3.02zm8.72 0.04c0-0.68-0.1333-1.26-0.4-1.74-0.2666-0.4933-0.6266-0.8667-1.08-1.12-0.4533-0.2667-0.94-0.4-1.46-0.4s-1 0.1267-1.44 0.38-0.8 0.6267-1.08 1.12c-0.2666 0.48-0.4 1.0533-0.4 1.72s0.1334 1.2533 0.4 1.76c0.28 0.4933 0.64 0.8733 1.08 1.14 0.4534 0.2667 0.9334 0.4 1.44 0.4 0.52 0 1.0067-0.1267 1.46-0.38 0.4534-0.2667 0.8134-0.64 1.08-1.12 0.2667-0.4933 0.4-1.08 0.4-1.76zm8.3547-3.82c0.36-0.5867 0.8267-1.0467 1.4-1.38 0.5867-0.3333 1.2534-0.5 2-0.5v2.94h-0.74c-0.88 0-1.5466 0.2067-2 0.62-0.44 0.4133-0.66 1.1333-0.66 2.16v5.52h-2.8v-11.08h2.8v1.72zm15.586 3.58c0 0.4-0.026 0.76-0.08 1.08h-8.1c0.067 0.8 0.347 1.4267 0.84 1.88 0.494 0.4533 1.1 0.68 1.82 0.68 1.04 0 1.78-0.4467 2.22-1.34h3.02c-0.32 1.0667-0.933 1.9467-1.84 2.64-0.906 0.68-2.02 1.02-3.34 1.02-1.066 0-2.026-0.2333-2.88-0.7-0.84-0.48-1.5-1.1533-1.9795-2.02-0.4667-0.8667-0.7-1.8667-0.7-3 0-1.1467 0.2333-2.1533 0.7-3.02 0.4665-0.8667 1.1195-1.5333 1.9595-2s1.807-0.7 2.9-0.7c1.054 0 1.994 0.2267 2.82 0.68 0.84 0.4533 1.487 1.1 1.94 1.94 0.467 0.8267 0.7 1.78 0.7 2.86zm-2.9-0.8c-0.013-0.72-0.273-1.2933-0.78-1.72-0.506-0.44-1.126-0.66-1.86-0.66-0.693 0-1.28 0.2133-1.76 0.64-0.466 0.4133-0.753 0.9933-0.86 1.74h5.26z" fill="#FAFAFB"/>
<rect x="2" y="3" width="24" height="24" rx="8" stroke="#FAFAFB" stroke-width="4"/>
<rect x="13" y="4" width="12" height="12" rx="6" stroke="#FAFAFB" stroke-width="4"/>
</svg>
